<svg width="14" height="14" viewBox="0 0 14 14" fill="none" xmlns="http://www.w3.org/2000/svg">
<path d="M7.58572 11.1248C7.58572 11.2801 7.52401 11.4291 7.41417 11.539C7.30432 11.6488 7.15534 11.7105 7 11.7105C6.84466 11.7105 6.69568 11.6488 6.58583 11.539C6.47599 11.4291 6.41428 11.2801 6.41428 11.1248L6.4184 7.5816L2.87521 7.58572C2.71987 7.58572 2.57089 7.52401 2.46104 7.41417C2.3512 7.30432 2.28949 7.15534 2.28949 7C2.28949 6.84466 2.3512 6.69568 2.46104 6.58584C2.57089 6.47599 2.71987 6.41428 2.87521 6.41428L6.4184 6.41841L6.41428 2.87521C6.41428 2.71987 6.47599 2.57089 6.58583 2.46105C6.69568 2.3512 6.84466 2.28949 7 2.28949C7.15534 2.28949 7.30432 2.3512 7.41417 2.46105C7.52401 2.57089 7.58572 2.71987 7.58572 2.87521L7.5816 6.41841L11.1248 6.41428C11.2801 6.41428 11.4291 6.47599 11.539 6.58584C11.6488 6.69568 11.7105 6.84466 11.7105 7C11.7105 7.15534 11.6488 7.30432 11.539 7.41417C11.4291 7.52401 11.2801 7.58572 11.1248 7.58572L7.5816 7.5816L7.58572 11.1248Z" fill="white"/>
</svg>
