<svg width="18" height="18" viewBox="0 0 18 18" fill="none" xmlns="http://www.w3.org/2000/svg">
<path d="M17.5551 15.4265C17.8373 15.7088 17.9959 16.0916 17.9959 16.4908C17.9959 16.89 17.8373 17.2728 17.5551 17.5551C17.2728 17.8373 16.89 17.9959 16.4908 17.9959C16.0916 17.9959 15.7088 17.8373 15.4265 17.5551L8.99591 11.1095L2.56529 17.5551C2.28303 17.8373 1.9002 17.9959 1.50102 17.9959C1.10184 17.9959 0.719007 17.8373 0.436744 17.5551C0.154481 17.2728 -0.00409317 16.89 -0.00409317 16.4908C-0.00409317 16.0916 0.154481 15.7088 0.436744 15.4265L6.88235 8.99591L0.436744 2.5653C0.154481 2.28303 -0.00409317 1.9002 -0.00409317 1.50102C-0.00409317 1.10184 0.154481 0.719011 0.436744 0.436748C0.719007 0.154485 1.10184 -0.00408935 1.50102 -0.00408936C1.9002 -0.00408936 2.28303 0.154485 2.56529 0.436748L8.99591 6.88235L15.4265 0.436748C15.7088 0.154485 16.0916 -0.00408936 16.4908 -0.00408936C16.89 -0.00408936 17.2728 0.154485 17.5551 0.436748C17.8373 0.719011 17.9959 1.10184 17.9959 1.50102C17.9959 1.9002 17.8373 2.28303 17.5551 2.5653L11.1095 8.99591L17.5551 15.4265Z" fill="#AEB9E1"/>
</svg>
