<svg width="16" height="16" viewBox="0 0 16 16" fill="none" xmlns="http://www.w3.org/2000/svg">
<path d="M13.8067 6.47332L8.47333 11.8067C8.41135 11.8691 8.33762 11.9187 8.25638 11.9526C8.17514 11.9864 8.088 12.0039 8 12.0039C7.91199 12.0039 7.82485 11.9864 7.74361 11.9526C7.66237 11.9187 7.58864 11.8691 7.52666 11.8067L2.19333 6.47332C2.06779 6.34779 1.99727 6.17753 1.99727 5.99999C1.99727 5.82246 2.06779 5.65219 2.19333 5.52666C2.31887 5.40112 2.48913 5.3306 2.66666 5.3306C2.8442 5.3306 3.01446 5.40112 3.14 5.52666L8 10.3933L12.86 5.52666C12.9855 5.40112 13.1558 5.3306 13.3333 5.3306C13.5109 5.3306 13.6811 5.40112 13.8067 5.52666C13.9322 5.65219 14.0027 5.82246 14.0027 5.99999C14.0027 6.17753 13.9322 6.34779 13.8067 6.47332V6.47332Z" fill="#AEB9E1"/>
</svg>
