<svg width="18" height="18" viewBox="0 0 18 18" fill="none" xmlns="http://www.w3.org/2000/svg">
<path d="M6 2.25H4.5C3.90326 2.25 3.33097 2.48705 2.90901 2.90901C2.48705 3.33097 2.25 3.90326 2.25 4.5V6C2.25 6.59674 2.48705 7.16903 2.90901 7.59099C3.33097 8.01295 3.90326 8.25 4.5 8.25H6C6.59674 8.25 7.16903 8.01295 7.59099 7.59099C8.01295 7.16903 8.25 6.59674 8.25 6V4.5C8.25 3.90326 8.01295 3.33097 7.59099 2.90901C7.16903 2.48705 6.59674 2.25 6 2.25ZM6.75 6C6.75 6.19891 6.67098 6.38968 6.53033 6.53033C6.38968 6.67098 6.19891 6.75 6 6.75H4.5C4.30109 6.75 4.11032 6.67098 3.96967 6.53033C3.82902 6.38968 3.75 6.19891 3.75 6V4.5C3.75 4.30109 3.82902 4.11032 3.96967 3.96967C4.11032 3.82902 4.30109 3.75 4.5 3.75H6C6.19891 3.75 6.38968 3.82902 6.53033 3.96967C6.67098 4.11032 6.75 4.30109 6.75 4.5V6ZM6 9.75H4.5C3.90326 9.75 3.33097 9.98705 2.90901 10.409C2.48705 10.831 2.25 11.4033 2.25 12V13.5C2.25 14.0967 2.48705 14.669 2.90901 15.091C3.33097 15.5129 3.90326 15.75 4.5 15.75H6C6.59674 15.75 7.16903 15.5129 7.59099 15.091C8.01295 14.669 8.25 14.0967 8.25 13.5V12C8.25 11.4033 8.01295 10.831 7.59099 10.409C7.16903 9.98705 6.59674 9.75 6 9.75ZM6.75 13.5C6.75 13.6989 6.67098 13.8897 6.53033 14.0303C6.38968 14.171 6.19891 14.25 6 14.25H4.5C4.30109 14.25 4.11032 14.171 3.96967 14.0303C3.82902 13.8897 3.75 13.6989 3.75 13.5V12C3.75 11.8011 3.82902 11.6103 3.96967 11.4697C4.11032 11.329 4.30109 11.25 4.5 11.25H6C6.19891 11.25 6.38968 11.329 6.53033 11.4697C6.67098 11.6103 6.75 11.8011 6.75 12V13.5ZM13.5 9.75H12C11.4033 9.75 10.831 9.98705 10.409 10.409C9.98705 10.831 9.75 11.4033 9.75 12V13.5C9.75 14.0967 9.98705 14.669 10.409 15.091C10.831 15.5129 11.4033 15.75 12 15.75H13.5C14.0967 15.75 14.669 15.5129 15.091 15.091C15.5129 14.669 15.75 14.0967 15.75 13.5V12C15.75 11.4033 15.5129 10.831 15.091 10.409C14.669 9.98705 14.0967 9.75 13.5 9.75ZM14.25 13.5C14.25 13.6989 14.171 13.8897 14.0303 14.0303C13.8897 14.171 13.6989 14.25 13.5 14.25H12C11.8011 14.25 11.6103 14.171 11.4697 14.0303C11.329 13.8897 11.25 13.6989 11.25 13.5V12C11.25 11.8011 11.329 11.6103 11.4697 11.4697C11.6103 11.329 11.8011 11.25 12 11.25H13.5C13.6989 11.25 13.8897 11.329 14.0303 11.4697C14.171 11.6103 14.25 11.8011 14.25 12V13.5ZM9.75 3.75C9.75 3.55109 9.82902 3.36032 9.96967 3.21967C10.1103 3.07902 10.3011 3 10.5 3H15C15.1989 3 15.3897 3.07902 15.5303 3.21967C15.671 3.36032 15.75 3.55109 15.75 3.75C15.75 3.94891 15.671 4.13968 15.5303 4.28033C15.3897 4.42098 15.1989 4.5 15 4.5H10.5C10.3011 4.5 10.1103 4.42098 9.96967 4.28033C9.82902 4.13968 9.75 3.94891 9.75 3.75ZM15.75 6.75C15.75 6.94891 15.671 7.13968 15.5303 7.28033C15.3897 7.42098 15.1989 7.5 15 7.5H10.5C10.3011 7.5 10.1103 7.42098 9.96967 7.28033C9.82902 7.13968 9.75 6.94891 9.75 6.75C9.75 6.55109 9.82902 6.36032 9.96967 6.21967C10.1103 6.07902 10.3011 6 10.5 6H15C15.1989 6 15.3897 6.07902 15.5303 6.21967C15.671 6.36032 15.75 6.55109 15.75 6.75Z" fill="#CB3CFF"/>
</svg>
