<svg width="14" height="14" viewBox="0 0 14 14" fill="none" xmlns="http://www.w3.org/2000/svg">
<path d="M12.4318 4.63203C12.3507 4.55035 12.2542 4.48558 12.1479 4.44146C12.0416 4.39734 11.9276 4.37475 11.8125 4.375H10.0625V3.9375C10.0625 3.12527 9.73985 2.34632 9.16551 1.77199C8.59118 1.19766 7.81223 0.875 7 0.875C6.18777 0.875 5.40882 1.19766 4.83449 1.77199C4.26016 2.34632 3.9375 3.12527 3.9375 3.9375V4.375H2.1875C1.95544 4.375 1.73288 4.46719 1.56878 4.63128C1.40469 4.79538 1.3125 5.01794 1.3125 5.25V11.1562C1.3125 12.2227 2.21484 13.125 3.28125 13.125H10.7188C11.2346 13.1252 11.73 12.9235 12.0991 12.5631C12.2848 12.3859 12.4327 12.1729 12.5338 11.937C12.635 11.7011 12.6872 11.4471 12.6875 11.1904V5.25C12.6879 5.13521 12.6654 5.02148 12.6216 4.91541C12.5777 4.80934 12.5132 4.71302 12.4318 4.63203ZM4.8125 3.9375C4.8125 3.35734 5.04297 2.80094 5.4532 2.3907C5.86344 1.98047 6.41984 1.75 7 1.75C7.58016 1.75 8.13656 1.98047 8.5468 2.3907C8.95703 2.80094 9.1875 3.35734 9.1875 3.9375V4.375H4.8125V3.9375ZM10.0625 6.5625C10.0625 7.37473 9.73985 8.15368 9.16551 8.72801C8.59118 9.30234 7.81223 9.625 7 9.625C6.18777 9.625 5.40882 9.30234 4.83449 8.72801C4.26016 8.15368 3.9375 7.37473 3.9375 6.5625V6.125C3.9375 6.00897 3.98359 5.89769 4.06564 5.81564C4.14769 5.73359 4.25897 5.6875 4.375 5.6875C4.49103 5.6875 4.60231 5.73359 4.68436 5.81564C4.76641 5.89769 4.8125 6.00897 4.8125 6.125V6.5625C4.8125 7.14266 5.04297 7.69906 5.4532 8.1093C5.86344 8.51953 6.41984 8.75 7 8.75C7.58016 8.75 8.13656 8.51953 8.5468 8.1093C8.95703 7.69906 9.1875 7.14266 9.1875 6.5625V6.125C9.1875 6.00897 9.23359 5.89769 9.31564 5.81564C9.39769 5.73359 9.50897 5.6875 9.625 5.6875C9.74103 5.6875 9.85231 5.73359 9.93436 5.81564C10.0164 5.89769 10.0625 6.00897 10.0625 6.125V6.5625Z" fill="#AEB9E1"/>
</svg>
