<svg width="18" height="18" viewBox="0 0 18 18" fill="none" xmlns="http://www.w3.org/2000/svg">
<path d="M9.75 12.75V8.25C9.75 8.05109 9.82902 7.86032 9.96967 7.71967C10.1103 7.57902 10.3011 7.5 10.5 7.5C10.6989 7.5 10.8897 7.57902 11.0303 7.71967C11.171 7.86032 11.25 8.05109 11.25 8.25V12.75C11.25 12.9489 11.171 13.1397 11.0303 13.2803C10.8897 13.421 10.6989 13.5 10.5 13.5C10.3011 13.5 10.1103 13.421 9.96967 13.2803C9.82902 13.1397 9.75 12.9489 9.75 12.75ZM7.5 13.5C7.69891 13.5 7.88968 13.421 8.03033 13.2803C8.17098 13.1397 8.25 12.9489 8.25 12.75V8.25C8.25 8.05109 8.17098 7.86032 8.03033 7.71967C7.88968 7.57902 7.69891 7.5 7.5 7.5C7.30109 7.5 7.11032 7.57902 6.96967 7.71967C6.82902 7.86032 6.75 8.05109 6.75 8.25V12.75C6.75 12.9489 6.82902 13.1397 6.96967 13.2803C7.11032 13.421 7.30109 13.5 7.5 13.5ZM15.75 5.25C15.75 5.44891 15.671 5.63968 15.5303 5.78033C15.3897 5.92098 15.1989 6 15 6H14.25V14.205C14.25 14.8017 14.0129 15.374 13.591 15.796C13.169 16.2179 12.5967 16.455 12 16.455H6C5.40326 16.455 4.83097 16.2179 4.40901 15.796C3.98705 15.374 3.75 14.8017 3.75 14.205V6H3C2.80109 6 2.61032 5.92098 2.46967 5.78033C2.32902 5.63968 2.25 5.44891 2.25 5.25C2.25 5.05109 2.32902 4.86032 2.46967 4.71967C2.61032 4.57902 2.80109 4.5 3 4.5H6V3.75C6 3.15326 6.23705 2.58097 6.65901 2.15901C7.08097 1.73705 7.65326 1.5 8.25 1.5H9.75C10.3467 1.5 10.919 1.73705 11.341 2.15901C11.7629 2.58097 12 3.15326 12 3.75V4.5H15C15.1989 4.5 15.3897 4.57902 15.5303 4.71967C15.671 4.86032 15.75 5.05109 15.75 5.25ZM7.5 4.5H10.5V3.75C10.5 3.55109 10.421 3.36032 10.2803 3.21967C10.1397 3.07902 9.94891 3 9.75 3H8.25C8.05109 3 7.86032 3.07902 7.71967 3.21967C7.57902 3.36032 7.5 3.55109 7.5 3.75V4.5ZM12.75 6H5.25V14.205C5.25 14.4039 5.32902 14.5947 5.46967 14.7353C5.61032 14.876 5.80109 14.955 6 14.955H12C12.1989 14.955 12.3897 14.876 12.5303 14.7353C12.671 14.5947 12.75 14.4039 12.75 14.205V6Z" fill="#AEB9E1"/>
</svg>
