<svg width="14" height="14" viewBox="0 0 14 14" fill="none" xmlns="http://www.w3.org/2000/svg">
<path d="M10.0625 1.3125H9.75051C9.70657 1.31246 9.66366 1.29918 9.62738 1.27441C9.59109 1.24963 9.56311 1.2145 9.54707 1.17359C9.46301 0.956992 9.3155 0.770827 9.12385 0.639482C8.9322 0.508137 8.70535 0.437736 8.47301 0.4375H5.52699C5.29465 0.437736 5.0678 0.508137 4.87615 0.639482C4.6845 0.770827 4.53699 0.956992 4.45293 1.17359C4.43689 1.2145 4.40891 1.24963 4.37262 1.27441C4.33634 1.29918 4.29343 1.31246 4.24949 1.3125H3.9375C3.47337 1.3125 3.02825 1.49687 2.70006 1.82506C2.37187 2.15325 2.1875 2.59837 2.1875 3.0625V11.8125C2.1875 12.2766 2.37187 12.7217 2.70006 13.0499C3.02825 13.3781 3.47337 13.5625 3.9375 13.5625H10.0625C10.5266 13.5625 10.9717 13.3781 11.2999 13.0499C11.6281 12.7217 11.8125 12.2766 11.8125 11.8125V3.0625C11.8125 2.59837 11.6281 2.15325 11.2999 1.82506C10.9717 1.49687 10.5266 1.3125 10.0625 1.3125ZM8.74645 3.0625H5.25355C5.13752 3.0625 5.02624 3.01641 4.9442 2.93436C4.86215 2.85231 4.81605 2.74103 4.81605 2.625C4.81605 2.50897 4.86215 2.39769 4.9442 2.31564C5.02624 2.23359 5.13752 2.1875 5.25355 2.1875H8.74645C8.86248 2.1875 8.97376 2.23359 9.0558 2.31564C9.13785 2.39769 9.18395 2.50897 9.18395 2.625C9.18395 2.74103 9.13785 2.85231 9.0558 2.93436C8.97376 3.01641 8.86248 3.0625 8.74645 3.0625Z" fill="#AEB9E1"/>
</svg>
