<svg width="14" height="14" viewBox="0 0 14 14" fill="none" xmlns="http://www.w3.org/2000/svg">
<path d="M4.08334 7.58333C4.54483 7.58333 4.99595 7.44649 5.37967 7.1901C5.76338 6.93371 6.06245 6.56929 6.23906 6.14293C6.41566 5.71657 6.46187 5.24741 6.37184 4.79479C6.28181 4.34217 6.05958 3.92641 5.73325 3.60008C5.40693 3.27376 4.99117 3.05153 4.53855 2.9615C4.08593 2.87147 3.61677 2.91768 3.19041 3.09428C2.76405 3.27089 2.39963 3.56996 2.14324 3.95367C1.88685 4.33739 1.75001 4.78851 1.75001 5.25C1.75001 5.86884 1.99584 6.46233 2.43342 6.89992C2.87101 7.3375 3.4645 7.58333 4.08334 7.58333ZM4.08334 4.08333C4.31408 4.08333 4.53965 4.15176 4.7315 4.27995C4.92336 4.40815 5.0729 4.59036 5.1612 4.80354C5.2495 5.01672 5.2726 5.2513 5.22759 5.47761C5.18257 5.70392 5.07146 5.9118 4.9083 6.07496C4.74514 6.23812 4.53726 6.34923 4.31094 6.39425C4.08463 6.43927 3.85005 6.41616 3.63687 6.32786C3.42369 6.23956 3.24149 6.09002 3.11329 5.89817C2.9851 5.70631 2.91667 5.48075 2.91667 5.25C2.91667 4.94058 3.03959 4.64384 3.25838 4.42504C3.47717 4.20625 3.77392 4.08333 4.08334 4.08333V4.08333ZM7.00001 9.91667V11.0833C7.00001 11.238 6.93855 11.3864 6.82915 11.4958C6.71975 11.6052 6.57138 11.6667 6.41667 11.6667C6.26196 11.6667 6.11359 11.6052 6.00419 11.4958C5.8948 11.3864 5.83334 11.238 5.83334 11.0833V9.91667C5.83334 9.76196 5.77188 9.61358 5.66248 9.50419C5.55309 9.39479 5.40471 9.33333 5.25001 9.33333H2.91667C2.76196 9.33333 2.61359 9.39479 2.50419 9.50419C2.3948 9.61358 2.33334 9.76196 2.33334 9.91667V11.0833C2.33334 11.238 2.27188 11.3864 2.16248 11.4958C2.05309 11.6052 1.90471 11.6667 1.75001 11.6667C1.5953 11.6667 1.44692 11.6052 1.33753 11.4958C1.22813 11.3864 1.16667 11.238 1.16667 11.0833V9.91667C1.16667 9.45254 1.35105 9.00742 1.67923 8.67923C2.00742 8.35104 2.45254 8.16667 2.91667 8.16667H5.25001C5.71413 8.16667 6.15925 8.35104 6.48744 8.67923C6.81563 9.00742 7.00001 9.45254 7.00001 9.91667ZM9.91667 6.41667C10.3782 6.41667 10.8293 6.27982 11.213 6.02343C11.5967 5.76704 11.8958 5.40262 12.0724 4.97626C12.249 4.5499 12.2952 4.08075 12.2052 3.62812C12.1151 3.1755 11.8929 2.75974 11.5666 2.43342C11.2403 2.1071 10.8245 1.88487 10.3719 1.79484C9.91926 1.7048 9.45011 1.75101 9.02374 1.92762C8.59738 2.10422 8.23297 2.40329 7.97658 2.787C7.72019 3.17072 7.58334 3.62184 7.58334 4.08333C7.58334 4.70217 7.82917 5.29567 8.26676 5.73325C8.70434 6.17084 9.29783 6.41667 9.91667 6.41667ZM9.91667 2.91667C10.1474 2.91667 10.373 2.98509 10.5648 3.11329C10.7567 3.24148 10.9062 3.42369 10.9945 3.63687C11.0828 3.85005 11.1059 4.08463 11.0609 4.31094C11.0159 4.53725 10.9048 4.74513 10.7416 4.90829C10.5785 5.07145 10.3706 5.18257 10.1443 5.22758C9.91797 5.2726 9.68339 5.2495 9.47021 5.16119C9.25703 5.07289 9.07482 4.92336 8.94662 4.7315C8.81843 4.53964 8.75001 4.31408 8.75001 4.08333C8.75001 3.77392 8.87292 3.47717 9.09171 3.25838C9.31051 3.03958 9.60725 2.91667 9.91667 2.91667V2.91667ZM12.8333 8.75V9.91667C12.8333 10.0714 12.7719 10.2198 12.6625 10.3291C12.5531 10.4385 12.4047 10.5 12.25 10.5C12.0953 10.5 11.9469 10.4385 11.8375 10.3291C11.7281 10.2198 11.6667 10.0714 11.6667 9.91667V8.75C11.6667 8.59529 11.6052 8.44692 11.4958 8.33752C11.3864 8.22813 11.238 8.16667 11.0833 8.16667H8.75001C8.6498 8.16697 8.55135 8.19309 8.46417 8.2425V8.2425C8.36474 8.29777 8.28363 8.3809 8.23084 8.48167V8.48167C8.1963 8.55133 8.14818 8.61338 8.08931 8.66418C8.03044 8.71498 7.962 8.75349 7.88803 8.77746C7.81406 8.80143 7.73605 8.81036 7.65858 8.80374C7.5811 8.79713 7.50573 8.77509 7.4369 8.73892C7.36807 8.70275 7.30716 8.65319 7.25776 8.59315C7.20836 8.5331 7.17146 8.46378 7.14923 8.38927C7.12701 8.31476 7.1199 8.23656 7.12833 8.15926C7.13677 8.08196 7.16057 8.00713 7.19834 7.93917C7.35677 7.63884 7.59758 7.38994 7.89251 7.22167V7.22167C8.1546 7.07547 8.44989 6.99914 8.75001 7H11.0833C11.5475 7 11.9926 7.18438 12.3208 7.51256C12.649 7.84075 12.8333 8.28587 12.8333 8.75Z" fill="#AEB9E1"/>
</svg>
